<svg id="Warstwa_13" data-name="Warstwa 13" xmlns="http://www.w3.org/2000/svg" viewBox="0 0 773.9 770.06"><defs><clipPath id="clip-path" transform="translate(-61.93 -135.94)"><path fill="none" d="M176.45 382.71h203.7v126.84h-203.7z"/></clipPath><style>.cls-2{fill:#0a1133}.cls-3{fill:#0d1545}.cls-4{fill:#95d8ff}.cls-5{fill:#fff}.cls-6{fill:#f6d2a2}.cls-11{fill:#828593}.cls-12{fill:#198e88}.cls-13{fill:#146d66}.cls-14{fill:#b8e7ff}.cls-15{fill:#f0f4f7}</style></defs><path class="cls-2" d="M726.41 886.49h-.09c-2.21.64-5.88-.37-8.31-2.28l-225.79-178c-2.54-2-2.72-4.22-.4-4.89l14.23-4.11c2.32-.67 6.22.47 8.6 2.52l218.6 176.55c2.26 2.01-4.63 9.58-6.84 10.21z" transform="translate(-61.93 -135.94)"/><path class="cls-2" d="M494.62 879.84h.08c2.24.53 5.86-.64 8.19-2.66L720.2 689c2.45-2.12 2.53-4.34.17-4.9L706 680.6c-2.35-.56-6.19.76-8.48 2.92L487.31 870c-2.17 2.06 5.07 9.3 7.31 9.84z" transform="translate(-61.93 -135.94)"/><path class="cls-2" d="M835.71 472.27c4.29 120.12-97.5 254.29-241.59 256.42-149.82 2.22-283.23-117.09-226.76-262.78C420 330.09 483.24 193.74 606.83 201c144.11 8.49 224.64 152.6 228.88 271.27z" transform="translate(-61.93 -135.94)"/><path class="cls-3" d="M422.46 671.47c486.33 137.19 396.63-411.9 177.26-470.71L422.46 671.47" transform="translate(-61.93 -135.94)"/><path class="cls-4" d="M692.22 218.45c26.19 43.61 40 98.17 45.95 147.34.54 4.53 1.17 9 1.92 13.51 14.32 86.9 17.13 176.59-21 234.6-48.9 74.6-153.62 103.1-263.84 71.47-57.54-16.49-96.45-70.4-92.38-130.1 1.92-28.16 10.55-56.06 24.21-78 .2-.34.42-.65.62-1a127.58 127.58 0 007.36-120.11c-19.81-43.36-29.58-86.62-8.23-139.34.51-1.56 1.09-3.1 1.7-4.6a84.6 84.6 0 017.81-15A97 97 0 01415.41 176a125.64 125.64 0 0114.7-10.53c49.65-30.56 124.6-33.35 158.48-26.29a141.34 141.34 0 0154.91 24.37A152.17 152.17 0 01660.61 178a182.59 182.59 0 0120.1 23.17c4.09 5.49 7.91 11.28 11.51 17.28z" transform="translate(-61.93 -135.94)"/><path class="cls-4" d="M683.9 179c-.1-.1-.32-.33-.72-.77a4.94 4.94 0 01.42.54c-1.9-1.63-11.67-9.36-21.82-2l-1.17 1.2a152.17 152.17 0 00-17.11-14.42c12.19-10.3 31.26-13.49 44.92-5.53 15.08 8.76 22.65 28.58 17.29 45.16-1.78 5.42-7.61 12-13.49 15.29-3.6-6-7.42-11.79-11.51-17.33l.85-.64c5-5.53 6.67-15.88 2-21.73z" transform="translate(-61.93 -135.94)"/><path d="M683.6 178.75c4.63 5.85 3 16.2-2 21.73l-.85.64A182.59 182.59 0 00660.61 178l1.17-1.2c10.15-7.41 19.92.32 21.82 1.95z" transform="translate(-61.93 -135.94)"/><path class="cls-4" d="M683.9 179l-.3-.23a4.94 4.94 0 00-.42-.54c.4.42.62.65.72.77zm-256.82-15.62l3 2.07A125.64 125.64 0 00415.41 176l-2.87-1.21c-7.91-5.93-24.07 0-23.74 9.89a30.8 30.8 0 002 7.91A8.12 8.12 0 00396 197l.34.22a84.6 84.6 0 00-7.81 15c-11-6.08-20-21.68-18.46-34.11a31.61 31.61 0 0157-14.71z" transform="translate(-61.93 -135.94)"/><path d="M412.54 174.77l2.87 1.21a97 97 0 00-19.07 21.22l-.34-.2a8.12 8.12 0 01-5.22-4.41 30.8 30.8 0 01-2-7.91c-.31-9.87 15.85-15.84 23.76-9.91z" transform="translate(-61.93 -135.94)"/><path class="cls-5" d="M503.53 284.55c0 28.95-26.12 52.42-58.35 52.42s-58.35-23.47-58.35-52.42 26.12-52.42 58.35-52.42 58.35 23.47 58.35 52.42z" transform="translate(-61.93 -135.94)"/><path class="cls-5" d="M503.53 284.55H503c0 14.33-6.46 27.29-16.92 36.7a62.64 62.64 0 01-81.86 0c-10.46-9.41-16.92-22.37-16.92-36.7s6.46-27.29 16.92-36.69a62.61 62.61 0 0181.86 0c10.46 9.4 16.92 22.37 16.92 36.69h1c0-14.63-6.6-27.87-17.25-37.43a63.61 63.61 0 00-83.2 0c-10.65 9.56-17.25 22.8-17.25 37.43s6.6 27.87 17.25 37.44a63.64 63.64 0 0083.2 0c10.65-9.57 17.25-22.81 17.25-37.44z" transform="translate(-61.93 -135.94)"/><ellipse class="cls-5" cx="535.56" cy="136.74" rx="58.35" ry="52.42"/><path class="cls-5" d="M655.85 272.69h-.5c0 14.32-6.46 27.29-16.93 36.69a62.64 62.64 0 01-81.86 0C546.1 300 539.64 287 539.64 272.69s6.46-27.3 16.92-36.7a62.64 62.64 0 0181.86 0c10.47 9.4 16.93 22.37 16.93 36.7h1c0-14.63-6.61-27.87-17.26-37.44a63.62 63.62 0 00-83.19 0c-10.66 9.57-17.26 22.81-17.26 37.44s6.6 27.86 17.26 37.43a63.62 63.62 0 0083.19 0c10.65-9.57 17.26-22.81 17.26-37.43z" transform="translate(-61.93 -135.94)"/><path d="M438.66 302.77c-.68 9.38-9.1 16.43-18.82 15.72s-17-8.87-16.36-18.26 9.1-16.43 18.81-15.73 17.05 8.88 16.37 18.27zm150.92-13.04c0 9.41-7.9 17-17.64 17s-17.63-7.63-17.63-17 7.89-17 17.63-17 17.64 7.58 17.64 17z" transform="translate(-61.93 -135.94)"/><path class="cls-5" d="M508.13 378.18q-.76 9.19-1.51 18.38c-.31 3.74-.58 7.74.81 11a8.62 8.62 0 007.42 5.38c6 .24 10.87 1 12.95-6.09 1.86-6.32 1.28-17.79 1.76-24.44.16-2.23.5-8.61-2.91-9.15s-5.27-1.48-8.63-1.72a10.87 10.87 0 00-9.21 4.64" transform="translate(-61.93 -135.94)"/><path class="cls-5" d="M527.7 381.65q.78 9.19 1.57 18.38c.32 3.74.72 7.72 2.58 10.72a8.27 8.27 0 007.93 4.09c5.7-.73 7.84-3.4 9.54-7.94 2.25-6 .08-17.93-.55-24.57-.22-2.22-.94-8.58-4.27-8.55s-5.25-.6-8.49-.29a10.45 10.45 0 00-8 6.07" transform="translate(-61.93 -135.94)"/><path class="cls-6" d="M572.05 363.38c-19.41-25.69-64.49-23.52-86.32-.69-3.11 3.26-6.27 13.94-4 17.8 5.94 9.89 25 6.28 33.18 3a33 33 0 0123.21-.64c15.88 5.59 36.89 13 38.47-4.56a21.72 21.72 0 00-4.54-14.91z" transform="translate(-61.93 -135.94)"/><path d="M553 346.86c0 6.56-11.52 11.87-25.72 11.87s-25.71-5.31-25.71-11.87 11.5-11.86 25.7-11.86S553 340.31 553 346.86z" transform="translate(-61.93 -135.94)"/><path d="M479.79 471.85c14.38 2.83 29.27 1.87 43.9 2.8 4.16.27 8.43.52 12.38-.79s7.55-4.58 7.95-8.72c.6-6.1-5.45-10.61-11-13.23a97.92 97.92 0 00-50.93-8.91s-12.21 26.9-2.3 28.85zm104.95-11.61c-.08-11.38-9.08-20.86-13.63-31.28-2.23-5.12-5.36-10.95-10.89-11.68-4-.52-7.86 2-10 5.44s-2.68 7.52-2.85 11.52a66.21 66.21 0 0011.37 39.95s26.1.18 26-13.95zM416.26 658.69c-4.17-21.25-8.65-43.21-21.22-60.84-4.36-6.12-11.4-12.12-18.58-9.89-5 1.56-8 6.63-9.82 11.56a53.67 53.67 0 0029.44 67.88l2.21 1.52c2.65 1.53 5.37 3.09 8.38 3.63s6.43-.14 8.41-2.47c2.57-3.02 1.92-7.51 1.18-11.39zm192.9-20.08c-.4-6.28-1.72-12.75-5.49-17.79s-10.45-8.3-16.5-6.54-9.68 7.54-12.84 12.9c-5.19 8.82-10.45 17.79-13 27.72s2.6 29.79 2.6 29.79c-.35 7.59 8.55 13.08 16 11.73s13.25-7.37 17.43-13.73a72.6 72.6 0 0011.8-44.08z" transform="translate(-61.93 -135.94)" fill="#f5d1a4"/><path class="cls-5" d="M571.51 295.7a5.59 5.59 0 11-5.58-5.21 5.41 5.41 0 015.58 5.21zm-149.46 11.12a5.59 5.59 0 11-5.57-5.22 5.39 5.39 0 015.57 5.22z" transform="translate(-61.93 -135.94)"/><rect class="cls-3" y="381.29" width="729.54" height="61.5" rx="4.79"/><path class="cls-3" d="M66.48 892.9h-.11c-2.91-.32-4.79-3.54-4.25-7.27l50.4-348.21c.56-3.91 3.57-6.88 6.62-6.54l18.69 2.12c3 .34 4.94 3.85 4.17 7.74L88.05 890.05c-.74 3.71-11.53 3.84-21.57 2.85zm720.15 12.57h.11c2.91-.32 4.79-3.54 4.24-7.27L740.59 550c-.57-3.92-3.57-6.89-6.62-6.55l-18.69 2.08c-3.06.34-4.95 3.85-4.17 7.74l53.95 349.36c.74 3.7 11.53 3.83 21.57 2.84z" transform="translate(-61.93 -135.94)"/><path fill="#ffe799" d="M179.85 381.29l-53.8-180.64 53.8-53.81 238.3 234.45h-238.3z"/><rect class="cls-3" x="10.21" y="361.42" width="100.46" height="35.65" rx="4.64"/><path class="cls-2" d="M122.64 515.55a6 6 0 01-5.4-3.37c-.76-1.58-18.82-39.11-21.25-85.91-3.28-62.82 23.55-111.6 77.58-141.07a6 6 0 015.75 10.54C129 323.17 105 366.76 108 425.29c2.23 44.43 19.9 81.27 20.08 81.63a6 6 0 01-5.39 8.63z" transform="translate(-61.93 -135.94)"/><path class="cls-2" d="M180.87 342.73L153.81 303a10 10 0 010-14.14L194 248.62a10 10 0 0114.14 0l38.33 28.71a3.58 3.58 0 01.39 5.4l-60.52 60.52a3.59 3.59 0 01-5.47-.52z" transform="translate(-61.93 -135.94)"/><g clip-path="url(#clip-path)"><path d="M380.15 497.4A12.15 12.15 0 01368 509.55H200.12A12.14 12.14 0 01188 497.4l-11.55-102.54a12.14 12.14 0 0112.14-12.15h167.88a12.15 12.15 0 0112.15 12.15z" transform="translate(-61.93 -135.94)" fill="#9295a5"/></g><path class="cls-11" d="M441.64 509.09v4.66a3.47 3.47 0 01-3.48 3.48H377.9l60.26-11.62a3.48 3.48 0 013.48 3.48z" transform="translate(-61.93 -135.94)"/><path class="cls-11" d="M438.16 505.61l-60.26 11.62H202.7c-10.63 0-7.08-11.53-7.08-11.53l3.32-.09z" transform="translate(-61.93 -135.94)"/><path class="cls-12" d="M177.22 478.42c7 14.28 9.87 27.27 6.33 29s-12.13-8.41-19.17-22.69a66 66 0 01-6.33-29 65.94 65.94 0 0119.17 22.69z" transform="translate(-61.93 -135.94)"/><path class="cls-13" d="M221.74 487.37c-9.8 12.55-20.64 20.46-24.21 17.67s1.47-15.22 11.26-27.77S233 459.6 233 459.6s-1.47 15.22-11.26 27.77z" transform="translate(-61.93 -135.94)"/><path class="cls-12" d="M197.9 462.81c0 17.56-4 31.8-8.91 31.8s-8.9-14.24-8.9-31.8S189 431 189 431s8.9 14.24 8.9 31.81z" transform="translate(-61.93 -135.94)"/><path class="cls-13" d="M205.45 470.63c-4.57 13.64-10.69 23.89-13.67 22.89s-1.69-12.86 2.88-26.5a65.9 65.9 0 0113.67-22.89 65.88 65.88 0 01-2.88 26.5z" transform="translate(-61.93 -135.94)"/><path class="cls-13" d="M186.46 470.22c4.42 15.3 4.93 28.59 1.13 29.68s-10.46-10.41-14.88-25.7a66 66 0 01-1.13-29.68 65.94 65.94 0 0114.88 25.7z" transform="translate(-61.93 -135.94)"/><path class="cls-12" d="M220.74 472.47c-7.51 13.53-16.85 22.69-20.86 20.47s-1.17-15 6.34-28.54 20.86-20.46 20.86-20.46 1.17 15-6.34 28.53z" transform="translate(-61.93 -135.94)"/><rect class="cls-3" x="95.3" y="346.7" width="73.03" height="46.12" rx="4.64"/><path class="cls-14" d="M124.22 444.21a4.9 4.9 0 111.51-6.76 4.88 4.88 0 01-1.51 6.76z" transform="translate(-61.93 -135.94)"/><path d="M118.46 439.69a3.14 3.14 0 112.37 3.81 3.17 3.17 0 01-2.37-3.81z" transform="translate(-61.93 -135.94)"/><path class="cls-14" d="M90.94 440.1a4.9 4.9 0 11-4.9-4.9 4.9 4.9 0 014.9 4.9z" transform="translate(-61.93 -135.94)"/><path d="M84 442.54a3.14 3.14 0 114.48 0 3.17 3.17 0 01-4.48 0z" transform="translate(-61.93 -135.94)"/><path class="cls-14" d="M130.59 475.74c-.74 19.27-9.45 22.18-24 22.18-14.81 0-26.54-1.56-26.54-22.18 0-10.92-.88-25 4.39-32.95 4.69-7.1 15.12-8.79 22-8.79s15.6 3.88 19.77 11c4.68 8 4.79 19.83 4.38 30.74z" transform="translate(-61.93 -135.94)"/><path class="cls-6" d="M84.31 462.6c-.47 1.76-2.76 2.67-5.1 2s-3.85-2.57-3.38-4.33 2.76-2.67 5.1-2 3.86 2.58 3.38 4.33zm42.13 3.4c-1.29-1.28-.94-3.72.77-5.43s4.15-2.07 5.44-.78.94 3.72-.78 5.44-4.15 2.07-5.43.77zm-6.24 29.25c.57-1.73 2.91-2.51 5.21-1.74s3.7 2.78 3.13 4.51-2.91 2.51-5.21 1.74-3.7-2.76-3.13-4.51zm-38.32 3.58c-.91-1.57.05-3.83 2.15-5.05s4.55-.92 5.45.66 0 3.84-2.15 5.05-4.54.92-5.45-.66z" transform="translate(-61.93 -135.94)"/><path class="cls-5" d="M101.17 450.89a8.49 8.49 0 11-8.48-8.42 8.45 8.45 0 018.48 8.42z" transform="translate(-61.93 -135.94)"/><path class="cls-5" d="M101.17 450.89h-.5a7.85 7.85 0 01-2.34 5.6 8 8 0 01-11.29 0 7.87 7.87 0 010-11.2 8 8 0 0111.29 0 7.85 7.85 0 012.34 5.6h1a8.87 8.87 0 00-2.67-6.31 9 9 0 00-12.69 0 8.86 8.86 0 000 12.62 9 9 0 0012.69 0 8.85 8.85 0 002.64-6.31z" transform="translate(-61.93 -135.94)"/><ellipse class="cls-5" cx="51.59" cy="313.04" rx="8.48" ry="8.42"/><path class="cls-5" d="M122 449h-.5a7.83 7.83 0 01-2.34 5.6 7.92 7.92 0 110-11.19 7.83 7.83 0 012.34 5.59h1a8.86 8.86 0 00-2.63-6.3 9 9 0 00-12.7 0 8.87 8.87 0 000 12.61 9 9 0 0012.7 0 8.87 8.87 0 002.63-6.31z" transform="translate(-61.93 -135.94)"/><path d="M90.91 450.15a2.6 2.6 0 01-3.34-1.64 2.71 2.71 0 011.88-3.28 2.61 2.61 0 013.34 1.64 2.7 2.7 0 01-1.88 3.28zm24.3-2.06a2.57 2.57 0 111.79 3.31 2.65 2.65 0 01-1.79-3.31z" transform="translate(-61.93 -135.94)"/><path class="cls-5" d="M118 447.85a.81.81 0 11.56 1 .83.83 0 01-.56-1zm-28.66-.37a.82.82 0 111.1-.41.84.84 0 01-1.1.41zm12.29 16.62c-.07.84-.13 1.68-.2 2.53a3.31 3.31 0 00.11 1.51 1.17 1.17 0 001 .74c.8 0 1.46.13 1.74-.84a19.7 19.7 0 00.23-3.36c0-.3.07-1.18-.39-1.26a11.14 11.14 0 00-1.15-.23 1.44 1.44 0 00-1.24.63" transform="translate(-61.93 -135.94)"/><path class="cls-5" d="M104.25 464.58c.08.84.15 1.68.22 2.52a3.43 3.43 0 00.34 1.48 1.11 1.11 0 001.07.56 1.39 1.39 0 001.27-1.09 9.88 9.88 0 00-.07-3.38c0-.31-.13-1.18-.57-1.17a8.75 8.75 0 00-1.14 0 1.37 1.37 0 00-1.07.83" transform="translate(-61.93 -135.94)"/><path class="cls-6" d="M110.2 462.07c-2.6-3.54-8.64-3.24-11.57-.1a3 3 0 00-.53 2.45c.8 1.36 3.35.86 4.45.41a4.33 4.33 0 013.11-.09c2.13.77 4.94 1.79 5.15-.62a3 3 0 00-.61-2.05z" transform="translate(-61.93 -135.94)"/><path d="M107.64 459.79c0 .91-1.54 1.64-3.44 1.64s-3.45-.73-3.45-1.64 1.54-1.63 3.45-1.63 3.44.73 3.44 1.63z" transform="translate(-61.93 -135.94)"/><path class="cls-15" d="M719.23 454c-12.58 0-22.77 10.46-22.77 23.36s10.19 23.36 22.77 23.36S742 490.26 742 477.36 731.8 454 719.23 454zm0 37.3a13.94 13.94 0 1113.59-13.94 13.76 13.76 0 01-13.59 13.94z" transform="translate(-61.93 -135.94)"/><path class="cls-15" d="M699.75 516.5H666.5a21 21 0 01-21-21v-54.18a2.32 2.32 0 012.32-2.32h70.61a2.32 2.32 0 012.32 2.32v54.18a21 21 0 01-21 21z" transform="translate(-61.93 -135.94)"/><path class="cls-4" d="M691.43 480s-20.1-12.66-13.67-22.6c5.85-9.05 13.67 0 13.67 0s7.84-9.07 13.69 0c6.42 9.9-13.69 22.6-13.69 22.6z" transform="translate(-61.93 -135.94)"/><path class="cls-5" d="M649.36 442.55s-1.75 41.06 1 54.37c.64 3.08 1.14 10.58 13.14 15.58 0 0-6.94-4.57-8.5-15.5-2-14-.21-54.45-.21-54.45z" transform="translate(-61.93 -135.94)"/><path class="cls-3" d="M605.94 338.24l-2.71-.55v-16.45l2.71-.57v-1.49h-8.33v1.49l2.72.57v16.45l-2.72.55v1.49h8.33v-1.49z"/><path class="cls-3" d="M660.23 492l1.76.1-.14 2.34a4.92 4.92 0 01-1.26.08 2 2 0 01-1.75-1.06 5.26 5.26 0 01-.46-2.83 4.62 4.62 0 01.93-2.74 2.46 2.46 0 012.11-.92 4.1 4.1 0 012.08.74l.77-1.87a5.89 5.89 0 00-2.73-.84 4.45 4.45 0 00-3.66 1.31 6.44 6.44 0 00-1.53 4.16 7.18 7.18 0 00.87 4.35 3.76 3.76 0 003.13 1.68 9.8 9.8 0 001.63 0 9.58 9.58 0 001.72-.4l.33-5.82-3.69-.21zm8.07-3.76a2 2 0 011.8-.91q2.35.06 2.26 3.85t-2.47 3.73a2 2 0 01-1.74-1 5.48 5.48 0 01-.52-2.85 5.41 5.41 0 01.67-2.82zm5.1-1.32a3.89 3.89 0 00-3.24-1.58 3.94 3.94 0 00-3.34 1.4 6.87 6.87 0 00-1.26 4.25 7 7 0 001 4.33 4.37 4.37 0 006.58.17 8.59 8.59 0 00.23-8.57zm8.36-.38a3.54 3.54 0 00-2.58-.89h-3v11.23h2v-4h.82a3.58 3.58 0 002.68-.95 3.82 3.82 0 001-2.77 3.61 3.61 0 00-.92-2.62zm-3.59 1.06h.9a1.6 1.6 0 011.19.41 1.72 1.72 0 01.37 1.24 1.67 1.67 0 01-.45 1.26 1.92 1.92 0 01-1.37.43h-.65z" transform="translate(-61.93 -135.94)"/><path class="cls-3" d="M629.85 349.6l-1.97.03.07 4.41-3.7.05-.06-4.4-1.98.03.17 11.23 1.98-.03-.08-4.85 3.7-.05.07 4.85 1.97-.03-.17-11.24zm7.76 9.04l-3.39.1-.09-2.89 3.15-.1-.05-1.95-3.16.1-.08-2.47 3.39-.11-.06-1.94-5.36.16.35 11.23 5.36-.17-.06-1.96z"/><path class="cls-3" d="M704.35 492l2.42 4.2 2.19-.1-3-4.76a3.19 3.19 0 001.23-1.27 3.4 3.4 0 00.37-1.78 3.25 3.25 0 00-1-2.49 4 4 0 00-2.84-.7l-2.72.12.52 11.22 2-.09-.19-4.31zm-1.28-4.92h.6a2.37 2.37 0 011.42.27 1.32 1.32 0 01.51 1.12 1.48 1.48 0 01-.39 1.2 2.1 2.1 0 01-1.37.44h-.63z" transform="translate(-61.93 -135.94)"/></svg>